PathFileType	4	(X/Y/Z)	61_2_111_p1_0-312_filt_butterworth.trc
DataRate	CameraRate	NumFrames	NumMarkers	Units	OrigDataRate	OrigDataStartFrame	OrigNumFrames
47.0	47.0	5	27	m	47.0	156	312
Frame#	Time	RHip			RKnee			RAnkle			RBigToe			RSmallToe			RHeel			LHip			LKnee			LAnkle			LBigToe			LSmallToe			LHeel			Neck			Head			Nose			RShoulder			RElbow			RWrist			RThumb			RIndex			RPinky			LShoulder			LElbow			LWrist			LThumb			LIndex			LPinky			
		X1	Y1	Z1	X2	Y2	Z2	X3	Y3	Z3	X4	Y4	Z4	X5	Y5	Z5	X6	Y6	Z6	X7	Y7	Z7	X8	Y8	Z8	X9	Y9	Z9	X10	Y10	Z10	X11	Y11	Z11	X12	Y12	Z12	X13	Y13	Z13	X14	Y14	Z14	X15	Y15	Z15	X16	Y16	Z16	X17	Y17	Z17	X18	Y18	Z18	X19	Y19	Z19	X20	Y20	Z20	X21	Y21	Z21	X22	Y22	Z22	X23	Y23	Z23	X24	Y24	Z24	X25	Y25	Z25	X26	Y26	Z26	X27	Y27	Z27	
156	3.3191489361702127	0.3169528698410806	0.6554377063141039	0.9474464227887365	0.325655715417055	0.7669396505775632	1.3625514714019153	0.3044660382137271	0.9342318977129112	1.7638992038470684	0.3030922532586464	0.7022668278795037	1.8232389253578214	0.36223259320092727	0.750544879484917	1.8181857631055296	0.2803820235029114	0.9910457727694073	1.7983044759802387	0.10521686198670573	0.6385846629561243	0.9651876895311764	0.103186467161138	0.7668806591221238	1.3810493051797366	0.10667894202551352	0.8744573996805649	1.7570341461801218	0.13847719476855702	0.7293696796497786	1.842574053461162	0.07251104296477798	0.7674110572536335	1.8252871707941074	0.13677609939362662	0.9641707688551373	1.8166900490433324	0.18338100693564074	0.5374798661349734	0.43766830689661385	0.0738612876574196	0.44960016043381956	0.22643444822060826	0.1500854755927629	0.4177162979306333	0.363152186452299	0.3553446304553328	0.5319052260271252	0.46615761854747906	0.34388877409483126	0.3773351000070643	0.6526300530278139	0.22417537902752344	0.36842794755756275	0.5044089786278401	0.16196956671278662	0.34256096133680713	0.4356796702875519	0.16703663925214535	0.3633819024532624	0.3846069379171061	0.17319620567878397	0.31228574224160893	0.42531686020682913	0.06088540685896965	0.5560013992783669	0.5228514305210221	0.09049629673125359	0.39727621624155307	0.7016211850785602	0.1529495809730709	0.3682120579910103	0.5177733872403114	0.10910745540062178	0.3803188613969643	0.4374485880172368	0.11916594099191308	0.32087982760011746	0.42170896510570305	0.13802990373340804	0.25106907441856585	0.44442569748487676
157	3.3404255319148937	0.3169402382608819	0.6555538922309407	0.9474488402474486	0.32565518238764146	0.7668847047402247	1.36254488953624	0.3044495053063842	0.9342432953811047	1.7639704781571952	0.30480802071331026	0.6980778240851846	1.8209350294407645	0.3624063511588249	0.7505278435196703	1.8180121760736652	0.28023239834677416	0.9910702577943609	1.8011538709397856	0.10344927769788911	0.6425469298286071	0.9656544366731888	0.10312524351290771	0.766156323854129	1.3831532938483302	0.10665649729272775	0.8745374446484517	1.7571594409237283	0.1381225033033356	0.7295271182897481	1.84163988077907	0.07249148556787838	0.7674153186721946	1.8253369434697038	0.13678229356081512	0.9646938073398731	1.8170898137171272	0.18416847844984274	0.5377352296593512	0.43743077527746116	0.0742575448886307	0.4489299688645837	0.22660574839293357	0.15023405838321224	0.4173154040812504	0.3621843495395185	0.3551477754389766	0.5324754353994	0.46621388017415116	0.34346948621987683	0.3771936488305309	0.65274505120692	0.22407381824144168	0.36935904495813443	0.5045856061951927	0.16027685402083947	0.34056660022293267	0.43610426787572654	0.16671214079395685	0.36450163062612745	0.3856551994988817	0.1741166546896168	0.3177889310272756	0.42612456096383583	0.060900087554965385	0.5560370036828939	0.5228935224767577	0.08994200788612369	0.3957739410895948	0.7005235968855833	0.15347567171506804	0.36900211147125167	0.517558825572975	0.1092509115961458	0.38718795694676256	0.43514723944432543	0.12134075899601915	0.3179055878474177	0.4190124760533603	0.13806797040384844	0.25064676859844476	0.44146910656703225
158	3.3617021276595747	0.31687003493989896	0.6553786752318773	0.9474128051363089	0.32565323117923617	0.7668885219360135	1.3625457440448294	0.3044391374580295	0.9342628400409816	1.7639798997433631	0.30503883636783036	0.6972827943346172	1.8195169038692875	0.36232632536753917	0.7511679594532319	1.8170880831038498	0.28014672521420975	0.9912245114682094	1.801331233967526	0.10300174025415874	0.6436074177047901	0.9657443944209934	0.10342736874388668	0.7661557212768878	1.3845118301884947	0.10664719282007964	0.8745903508446855	1.7572332368791872	0.13723315948110718	0.7293847590003557	1.8390493226375701	0.07245248822086786	0.7674049842324676	1.825345998549789	0.1367727080734733	0.964909648936479	1.8169097264153438	0.18411377691612607	0.537547537583192	0.4374131890390755	0.07714115123988195	0.4458476042088959	0.22677104925678743	0.1502395322284092	0.417335853510235	0.3620016739733732	0.3541782445606265	0.531785296137425	0.46640908573382855	0.34296711178145556	0.37640278397935745	0.652540710691045	0.2243298745759314	0.37323642838217164	0.5046799316371735	0.16399196109451983	0.34946484435841085	0.436201235748826	0.16682132671404046	0.3611770907817312	0.3869910425501217	0.1745439887253663	0.3203030574161831	0.4269340642142168	0.06091663190192258	0.5559371320752944	0.5227493825847003	0.09031178494864481	0.39230530962251675	0.7000401895278159	0.15410076577550363	0.36840307145138906	0.5174884885066379	0.11148060400680647	0.39372280113881697	0.43351095563080433	0.12434397639835941	0.31994151703334917	0.41788689202609064	0.1381161710373181	0.2501918291311319	0.4390187083764042
159	3.382978723404255	0.31674798063099435	0.6549242748270938	0.947355777450996	0.3256481026688439	0.7668952515007453	1.3625721671919253	0.30442914890373624	0.9342837746982209	1.7639497618265998	0.30475803790140416	0.6978663347631109	1.8192907576092225	0.3621105082059134	0.7523902459164946	1.8157381036454248	0.2799930750367122	0.9915503995264277	1.8001651220795656	0.10301278540040712	0.6436966634986294	0.9656756050875733	0.10335678114722995	0.7662891757715057	1.3833000386008962	0.10664075685348677	0.8746058828395964	1.7572577255471726	0.1366537180323103	0.7292588342941986	1.8373624367864216	0.07246062510785917	0.767338535405909	1.8253028292465974	0.1367832868247822	0.9648979160152203	1.816780749422165	0.18354209480915867	0.5368389298025065	0.43699226186463436	0.08212913763349913	0.44161414026009616	0.22631844034528648	0.15023263212932852	0.4176751413999763	0.362181414158973	0.3526543974527887	0.5277774366705936	0.4666265446477526	0.3421014611362419	0.3762082205296058	0.6516405757612977	0.22587219122413793	0.37850340969464485	0.5042290739193734	0.17281117086778286	0.3642521727255408	0.4355958992043389	0.16820483553374807	0.3593916055555971	0.38430484848906205	0.1761708852631851	0.32402665207194686	0.42645816595668423	0.060933430722192074	0.5555951587674435	0.5219026901717162	0.09051687960014565	0.3871902983006033	0.6992604734791812	0.154293202062452	0.36760703866462674	0.5171851065862151	0.11646393819606012	0.39596992275184684	0.43280429398165665	0.1279731324730753	0.32456871029050405	0.41713580992318966	0.13781015849166978	0.2507043979730748	0.4385973220930162
160	3.404255319148936	0.31686652850112756	0.6556401542879826	0.947394865686423	0.32563583309432437	0.7668872405249748	1.3626083876527901	0.3044322335242161	0.9342718461562448	1.7638806190568197	0.30468884614795855	0.6983687813605132	1.819427853717042	0.36152250187417206	0.7519954410804615	1.8144013435130664	0.279816492636513	0.9918870027368986	1.7991343529751265	0.10348157457080118	0.6427528386641392	0.9655110064043233	0.1028153973859854	0.7659861439185327	1.379785566034145	0.10661679976640476	0.8745919107717258	1.7572393660564951	0.13656943326039117	0.7292050600036909	1.8370896676127493	0.07249555132988622	0.7672705629584727	1.8252419410163894	0.13677916892716738	0.9648638814342712	1.8167995524872231	0.18345191669643818	0.5358839175489605	0.4360078038238963	0.0862484271397305	0.43918701768565593	0.225225458771702	0.15025760430542823	0.4179776659634724	0.3620032950033448	0.3521790792556462	0.5218925943845414	0.46667207103643693	0.3401515439543823	0.3798762557074519	0.6503352602793147	0.22831953773821073	0.38128772699864355	0.502946045568334	0.18352510350086523	0.3800190260081297	0.43447585583694875	0.171590895990221	0.3642777513355361	0.37607685176652306	0.1797581804357684	0.3318901431440908	0.42406208319601246	0.060949739818227516	0.5551260619349471	0.5202098981732445	0.08944107199221726	0.38320940702011	0.6980833488932711	0.1541516542282139	0.3676704310119723	0.5157913403726712	0.12033247887431728	0.3963087019432902	0.4314684903812779	0.13106958965276608	0.32860357254613715	0.41499235426495806	0.13709127969024545	0.2526319407496191	0.43883424727825027
